<svg width="44" height="36" viewBox="0 0 44 36" fill="none" xmlns="http://www.w3.org/2000/svg">
    <rect x="5.12518" y="5.12567" width="2.54283" height="2.54283" fill="white" stroke="#E8F3FF"
        stroke-width="0.0159926" />
    <rect x="33.2736" y="5.12561" width="2.54283" height="2.54283" fill="white" stroke="#E8F3FF"
        stroke-width="0.0159926" />
    <rect x="5.12518" y="7.68445" width="2.54283" height="2.54283" fill="white" stroke="#E8F3FF"
        stroke-width="0.0159926" />
    <rect x="35.8322" y="7.68439" width="2.54283" height="2.54283" fill="white" stroke="#E8F3FF"
        stroke-width="0.0159926" />
    <rect x="7.68378" y="5.12567" width="2.54283" height="2.54283" fill="white" stroke="#E8F3FF"
        stroke-width="0.0159926" />
    <rect x="35.8322" y="5.12561" width="2.54283" height="2.54283" fill="white" stroke="#E8F3FF"
        stroke-width="0.0159926" />
    <rect x="25.5939" y="15.3609" width="2.54283" height="2.54283" fill="white" stroke="#E8F3FF"
        stroke-width="0.0159926" />
    <rect x="15.3635" y="15.3609" width="2.54283" height="2.54283" fill="white" stroke="#E8F3FF"
        stroke-width="0.0159926" />
    <rect x="17.9214" y="12.8021" width="2.54283" height="2.54283" fill="white" stroke="#E8F3FF"
        stroke-width="0.0159926" />
    <rect x="20.4803" y="12.8021" width="2.54283" height="2.54283" fill="white" stroke="#E8F3FF"
        stroke-width="0.0159926" />
    <rect x="23.0391" y="12.8021" width="2.54283" height="2.54283" fill="white" stroke="#E8F3FF"
        stroke-width="0.0159926" />
    <rect x="12.8033" y="17.9197" width="2.54283" height="2.54283" fill="white" stroke="#E8F3FF"
        stroke-width="0.0159926" />
    <rect x="15.3622" y="17.9197" width="2.54283" height="2.54283" fill="white" stroke="#E8F3FF"
        stroke-width="0.0159926" />
    <rect x="17.921" y="17.9197" width="2.54283" height="2.54283" fill="white" stroke="#E8F3FF"
        stroke-width="0.0159926" />
    <rect x="23.0355" y="17.9197" width="2.54283" height="2.54283" fill="white" stroke="#E8F3FF"
        stroke-width="0.0159926" />
    <rect x="25.5943" y="17.9197" width="2.54283" height="2.54283" fill="white" stroke="#E8F3FF"
        stroke-width="0.0159926" />
    <rect x="28.1531" y="17.9197" width="2.54283" height="2.54283" fill="white" stroke="#E8F3FF"
        stroke-width="0.0159926" />
    <rect x="15.3624" y="20.4786" width="2.54283" height="2.54283" fill="white" stroke="#E8F3FF"
        stroke-width="0.0159926" />
    <rect x="17.9212" y="20.4786" width="2.54283" height="2.54283" fill="white" stroke="#E8F3FF"
        stroke-width="0.0159926" />
    <rect x="20.48" y="20.4786" width="2.54283" height="2.54283" fill="white" stroke="#E8F3FF"
        stroke-width="0.0159926" />
    <rect x="23.0388" y="20.4786" width="2.54283" height="2.54283" fill="white" stroke="#E8F3FF"
        stroke-width="0.0159926" />
    <rect x="25.5977" y="20.4786" width="2.54283" height="2.54283" fill="white" stroke="#E8F3FF"
        stroke-width="0.0159926" />
    <rect x="2.55988" y="10.2361" width="2.55722" height="2.55722" fill="#3774FA" stroke="white"
        stroke-width="0.00159926" />
    <rect x="5.11872" y="10.2361" width="2.55722" height="2.55722" fill="#3774FA" stroke="white"
        stroke-width="0.00159926" />
    <rect x="7.67756" y="10.2361" width="2.55722" height="2.55722" fill="#3774FA" stroke="white"
        stroke-width="0.00159926" />
    <rect x="10.2363" y="10.2361" width="2.55722" height="2.55722" fill="#3774FA" stroke="white"
        stroke-width="0.00159926" />
    <rect x="12.7952" y="10.2361" width="2.55722" height="2.55722" fill="#3774FA" stroke="white"
        stroke-width="0.00159926" />
    <rect x="15.354" y="10.2361" width="2.55722" height="2.55722" fill="#3774FA" stroke="white"
        stroke-width="0.00159926" />
    <rect x="17.9128" y="10.2361" width="2.55722" height="2.55722" fill="#3774FA" stroke="white"
        stroke-width="0.00159926" />
    <rect x="20.4716" y="10.2361" width="2.55722" height="2.55722" fill="#3774FA" stroke="white"
        stroke-width="0.00159926" />
    <rect x="23.0305" y="10.2361" width="2.55722" height="2.55722" fill="#3774FA" stroke="white"
        stroke-width="0.00159926" />
    <rect x="25.5893" y="10.2361" width="2.55722" height="2.55722" fill="#3774FA" stroke="white"
        stroke-width="0.00159926" />
    <rect x="28.1481" y="10.2361" width="2.55722" height="2.55722" fill="#3774FA" stroke="white"
        stroke-width="0.00159926" />
    <rect x="30.7069" y="10.2361" width="2.55722" height="2.55722" fill="#3774FA" stroke="white"
        stroke-width="0.00159926" />
    <rect x="33.2658" y="10.2361" width="2.55722" height="2.55722" fill="#3774FA" stroke="white"
        stroke-width="0.00159926" />
    <rect x="35.8246" y="10.2361" width="2.55722" height="2.55722" fill="#3774FA" stroke="white"
        stroke-width="0.00159926" />
    <rect x="38.3834" y="10.2361" width="2.55722" height="2.55722" fill="#3774FA" stroke="white"
        stroke-width="0.00159926" />
    <rect x="7.67798" y="7.67725" width="2.55722" height="2.55722" fill="#3774FA" stroke="white"
        stroke-width="0.00159926" />
    <rect x="10.2368" y="7.67725" width="2.55722" height="2.55722" fill="#3774FA" stroke="white"
        stroke-width="0.00159926" />
    <rect x="12.7957" y="7.67725" width="2.55722" height="2.55722" fill="#3774FA" stroke="white"
        stroke-width="0.00159926" />
    <rect x="15.3544" y="7.67725" width="2.55722" height="2.55722" fill="#3774FA" stroke="white"
        stroke-width="0.00159926" />
    <rect x="17.9133" y="7.67725" width="2.55722" height="2.55722" fill="#3774FA" stroke="white"
        stroke-width="0.00159926" />
    <rect x="20.4721" y="7.67725" width="2.55722" height="2.55722" fill="#3774FA" stroke="white"
        stroke-width="0.00159926" />
    <rect x="23.031" y="7.67725" width="2.55722" height="2.55722" fill="#3774FA" stroke="white"
        stroke-width="0.00159926" />
    <rect x="25.5897" y="7.67725" width="2.55722" height="2.55722" fill="#3774FA" stroke="white"
        stroke-width="0.00159926" />
    <rect x="28.1486" y="7.67725" width="2.55722" height="2.55722" fill="#3774FA" stroke="white"
        stroke-width="0.00159926" />
    <rect x="30.7074" y="7.67725" width="2.55722" height="2.55722" fill="#3774FA" stroke="white"
        stroke-width="0.00159926" />
    <rect x="33.2662" y="7.67725" width="2.55722" height="2.55722" fill="#3774FA" stroke="white"
        stroke-width="0.00159926" />
    <rect x="2.55988" y="23.0302" width="2.55722" height="2.55722" fill="#3774FA" stroke="white"
        stroke-width="0.00159926" />
    <rect x="5.11872" y="23.0302" width="2.55722" height="2.55722" fill="#3774FA" stroke="white"
        stroke-width="0.00159926" />
    <rect x="7.67756" y="23.0302" width="2.55722" height="2.55722" fill="#3774FA" stroke="white"
        stroke-width="0.00159926" />
    <rect x="10.2363" y="23.0302" width="2.55722" height="2.55722" fill="#3774FA" stroke="white"
        stroke-width="0.00159926" />
    <rect x="12.7952" y="23.0302" width="2.55722" height="2.55722" fill="#3774FA" stroke="white"
        stroke-width="0.00159926" />
    <rect x="15.354" y="23.0302" width="2.55722" height="2.55722" fill="#3774FA" stroke="white"
        stroke-width="0.00159926" />
    <rect x="17.9128" y="23.0302" width="2.55722" height="2.55722" fill="#3774FA" stroke="white"
        stroke-width="0.00159926" />
    <rect x="20.4716" y="23.0302" width="2.55722" height="2.55722" fill="#3774FA" stroke="white"
        stroke-width="0.00159926" />
    <rect x="23.0305" y="23.0302" width="2.55722" height="2.55722" fill="#3774FA" stroke="white"
        stroke-width="0.00159926" />
    <rect x="25.5893" y="23.0302" width="2.55722" height="2.55722" fill="#3774FA" stroke="white"
        stroke-width="0.00159926" />
    <rect x="28.1481" y="23.0302" width="2.55722" height="2.55722" fill="#3774FA" stroke="white"
        stroke-width="0.00159926" />
    <rect x="30.7069" y="23.0302" width="2.55722" height="2.55722" fill="#3774FA" stroke="white"
        stroke-width="0.00159926" />
    <rect x="33.2658" y="23.0302" width="2.55722" height="2.55722" fill="#3774FA" stroke="white"
        stroke-width="0.00159926" />
    <rect x="35.8246" y="23.0302" width="2.55722" height="2.55722" fill="#3774FA" stroke="white"
        stroke-width="0.00159926" />
    <rect x="38.3834" y="23.0302" width="2.55722" height="2.55722" fill="#3774FA" stroke="white"
        stroke-width="0.00159926" />
    <rect x="5.1189" y="25.589" width="2.55722" height="2.55722" fill="#3774FA" stroke="white"
        stroke-width="0.00159926" />
    <rect x="7.67774" y="25.589" width="2.55722" height="2.55722" fill="#3774FA" stroke="white"
        stroke-width="0.00159926" />
    <rect x="10.2366" y="25.589" width="2.55722" height="2.55722" fill="#3774FA" stroke="white"
        stroke-width="0.00159926" />
    <rect x="12.7954" y="25.589" width="2.55722" height="2.55722" fill="#3774FA" stroke="white"
        stroke-width="0.00159926" />
    <rect x="15.3542" y="25.589" width="2.55722" height="2.55722" fill="#3774FA" stroke="white"
        stroke-width="0.00159926" />
    <rect x="17.913" y="25.589" width="2.55722" height="2.55722" fill="#3774FA" stroke="white"
        stroke-width="0.00159926" />
    <rect x="20.4719" y="25.589" width="2.55722" height="2.55722" fill="#3774FA" stroke="white"
        stroke-width="0.00159926" />
    <rect x="23.0306" y="25.589" width="2.55722" height="2.55722" fill="#3774FA" stroke="white"
        stroke-width="0.00159926" />
    <rect x="25.5895" y="25.589" width="2.55722" height="2.55722" fill="#3774FA" stroke="white"
        stroke-width="0.00159926" />
    <rect x="28.1483" y="25.589" width="2.55722" height="2.55722" fill="#3774FA" stroke="white"
        stroke-width="0.00159926" />
    <rect x="30.7072" y="25.589" width="2.55722" height="2.55722" fill="#3774FA" stroke="white"
        stroke-width="0.00159926" />
    <rect x="33.2659" y="25.589" width="2.55722" height="2.55722" fill="#3774FA" stroke="white"
        stroke-width="0.00159926" />
    <rect x="35.8248" y="25.589" width="2.55722" height="2.55722" fill="#3774FA" stroke="white"
        stroke-width="0.00159926" />
    <rect x="5.1189" y="28.1478" width="2.55722" height="2.55722" fill="#3774FA" stroke="white"
        stroke-width="0.00159926" />
    <rect x="7.67774" y="28.1478" width="2.55722" height="2.55722" fill="#3774FA" stroke="white"
        stroke-width="0.00159926" />
    <rect x="10.2366" y="28.1478" width="2.55722" height="2.55722" fill="#3774FA" stroke="white"
        stroke-width="0.00159926" />
    <rect x="12.7954" y="28.1478" width="2.55722" height="2.55722" fill="#3774FA" stroke="white"
        stroke-width="0.00159926" />
    <rect x="15.3542" y="28.1478" width="2.55722" height="2.55722" fill="#3774FA" stroke="white"
        stroke-width="0.00159926" />
    <rect x="17.913" y="28.1478" width="2.55722" height="2.55722" fill="#3774FA" stroke="white"
        stroke-width="0.00159926" />
    <rect x="20.4719" y="28.1478" width="2.55722" height="2.55722" fill="#3774FA" stroke="white"
        stroke-width="0.00159926" />
    <rect x="23.0306" y="28.1478" width="2.55722" height="2.55722" fill="#3774FA" stroke="white"
        stroke-width="0.00159926" />
    <rect x="25.5895" y="28.1478" width="2.55722" height="2.55722" fill="#3774FA" stroke="white"
        stroke-width="0.00159926" />
    <rect x="28.1483" y="28.1478" width="2.55722" height="2.55722" fill="#3774FA" stroke="white"
        stroke-width="0.00159926" />
    <rect x="30.7072" y="28.1478" width="2.55722" height="2.55722" fill="#3774FA" stroke="white"
        stroke-width="0.00159926" />
    <rect x="33.2659" y="28.1478" width="2.55722" height="2.55722" fill="#3774FA" stroke="white"
        stroke-width="0.00159926" />
    <rect x="35.8248" y="28.1478" width="2.55722" height="2.55722" fill="#3774FA" stroke="white"
        stroke-width="0.00159926" />
    <rect x="10.2371" y="30.7067" width="2.55722" height="2.55722" fill="#3774FA" stroke="white"
        stroke-width="0.00159926" />
    <rect x="12.7959" y="30.7067" width="2.55722" height="2.55722" fill="#3774FA" stroke="white"
        stroke-width="0.00159926" />
    <rect x="15.3547" y="30.7067" width="2.55722" height="2.55722" fill="#3774FA" stroke="white"
        stroke-width="0.00159926" />
    <rect x="17.9135" y="30.7067" width="2.55722" height="2.55722" fill="#3774FA" stroke="white"
        stroke-width="0.00159926" />
    <rect x="20.4724" y="30.7067" width="2.55722" height="2.55722" fill="#3774FA" stroke="white"
        stroke-width="0.00159926" />
    <rect x="23.0312" y="30.7067" width="2.55722" height="2.55722" fill="#3774FA" stroke="white"
        stroke-width="0.00159926" />
    <rect x="25.59" y="30.7067" width="2.55722" height="2.55722" fill="#3774FA" stroke="white"
        stroke-width="0.00159926" />
    <rect x="28.1488" y="30.7067" width="2.55722" height="2.55722" fill="#3774FA" stroke="white"
        stroke-width="0.00159926" />
    <rect x="30.7076" y="30.7067" width="2.55722" height="2.55722" fill="#3774FA" stroke="white"
        stroke-width="0.00159926" />
    <rect x="10.2371" y="5.11841" width="2.55722" height="2.55722" fill="#3774FA" stroke="white"
        stroke-width="0.00159926" />
    <rect x="12.7959" y="5.11841" width="2.55722" height="2.55722" fill="#3774FA" stroke="white"
        stroke-width="0.00159926" />
    <rect x="15.3547" y="5.11841" width="2.55722" height="2.55722" fill="#3774FA" stroke="white"
        stroke-width="0.00159926" />
    <rect x="17.9135" y="5.11841" width="2.55722" height="2.55722" fill="#3774FA" stroke="white"
        stroke-width="0.00159926" />
    <rect x="20.4724" y="5.11841" width="2.55722" height="2.55722" fill="#3774FA" stroke="white"
        stroke-width="0.00159926" />
    <rect x="23.0312" y="5.11841" width="2.55722" height="2.55722" fill="#3774FA" stroke="white"
        stroke-width="0.00159926" />
    <rect x="25.59" y="5.11841" width="2.55722" height="2.55722" fill="#3774FA" stroke="white"
        stroke-width="0.00159926" />
    <rect x="28.1488" y="5.11841" width="2.55722" height="2.55722" fill="#3774FA" stroke="white"
        stroke-width="0.00159926" />
    <rect x="30.7076" y="5.11841" width="2.55722" height="2.55722" fill="#3774FA" stroke="white"
        stroke-width="0.00159926" />
    <rect x="5.1189" y="2.55964" width="2.55722" height="2.55722" fill="#3774FA" stroke="white"
        stroke-width="0.00159926" />
    <rect x="7.67774" y="2.55964" width="2.55722" height="2.55722" fill="#3774FA" stroke="white"
        stroke-width="0.00159926" />
    <rect x="10.2366" y="2.55964" width="2.55722" height="2.55722" fill="#3774FA" stroke="white"
        stroke-width="0.00159926" />
    <rect x="30.7055" y="2.55964" width="2.55722" height="2.55722" fill="#3774FA" stroke="white"
        stroke-width="0.00159926" />
    <rect x="33.2643" y="2.55964" width="2.55722" height="2.55722" fill="#3774FA" stroke="white"
        stroke-width="0.00159926" />
    <rect x="35.8231" y="2.55964" width="2.55722" height="2.55722" fill="#3774FA" stroke="white"
        stroke-width="0.00159926" />
    <rect x="15.3552" y="2.55964" width="2.55722" height="2.55722" fill="#3774FA" stroke="white"
        stroke-width="0.00159926" />
    <rect x="17.914" y="2.55964" width="2.55722" height="2.55722" fill="#3774FA" stroke="white"
        stroke-width="0.00159926" />
    <rect x="20.4728" y="2.55964" width="2.55722" height="2.55722" fill="#3774FA" stroke="white"
        stroke-width="0.00159926" />
    <rect x="23.0316" y="2.55964" width="2.55722" height="2.55722" fill="#3774FA" stroke="white"
        stroke-width="0.00159926" />
    <rect x="25.5905" y="2.55964" width="2.55722" height="2.55722" fill="#3774FA" stroke="white"
        stroke-width="0.00159926" />
    <rect x="2.55939" y="5.11841" width="2.55722" height="2.55722" fill="#3774FA" stroke="white"
        stroke-width="0.00159926" />
    <rect x="38.3836" y="5.11848" width="2.55722" height="2.55722" fill="#3774FA" stroke="white"
        stroke-width="0.00159926" />
    <rect x="2.55939" y="7.67725" width="2.55722" height="2.55722" fill="#3774FA" stroke="white"
        stroke-width="0.00159926" />
    <rect x="38.3836" y="7.67719" width="2.55722" height="2.55722" fill="#3774FA" stroke="white"
        stroke-width="0.00159926" />
    <rect x="5.1189" y="12.7949" width="2.55722" height="2.55722" fill="#3774FA" stroke="white"
        stroke-width="0.00159926" />
    <rect x="7.67774" y="12.7949" width="2.55722" height="2.55722" fill="#3774FA" stroke="white"
        stroke-width="0.00159926" />
    <rect x="10.2366" y="12.7949" width="2.55722" height="2.55722" fill="#3774FA" stroke="white"
        stroke-width="0.00159926" />
    <rect x="30.7039" y="12.7949" width="2.55722" height="2.55722" fill="#3774FA" stroke="white"
        stroke-width="0.00159926" />
    <rect x="33.2664" y="12.7949" width="2.55722" height="2.55722" fill="#3774FA" stroke="white"
        stroke-width="0.00159926" />
    <rect x="35.825" y="12.7949" width="2.55722" height="2.55722" fill="#3774FA" stroke="white"
        stroke-width="0.00159926" />
    <rect x="30.7055" y="15.3537" width="2.55722" height="2.55722" fill="#3774FA" stroke="white"
        stroke-width="0.00159926" />
    <rect x="33.2643" y="15.3537" width="2.55722" height="2.55722" fill="#3774FA" stroke="white"
        stroke-width="0.00159926" />
    <rect x="35.8231" y="15.3537" width="2.55722" height="2.55722" fill="#3774FA" stroke="white"
        stroke-width="0.00159926" />
    <rect x="38.3819" y="15.3537" width="2.55722" height="2.55722" fill="#3774FA" stroke="white"
        stroke-width="0.00159926" />
    <rect x="30.7055" y="17.9125" width="2.55722" height="2.55722" fill="#3774FA" stroke="white"
        stroke-width="0.00159926" />
    <rect x="33.2643" y="17.9125" width="2.55722" height="2.55722" fill="#3774FA" stroke="white"
        stroke-width="0.00159926" />
    <rect x="35.8231" y="17.9125" width="2.55722" height="2.55722" fill="#3774FA" stroke="white"
        stroke-width="0.00159926" />
    <rect x="38.3819" y="17.9125" width="2.55722" height="2.55722" fill="#3774FA" stroke="white"
        stroke-width="0.00159926" />
    <rect x="2.55988" y="17.9125" width="2.55722" height="2.55722" fill="#3774FA" stroke="white"
        stroke-width="0.00159926" />
    <rect x="5.11872" y="17.9125" width="2.55722" height="2.55722" fill="#3774FA" stroke="white"
        stroke-width="0.00159926" />
    <rect x="7.67756" y="17.9125" width="2.55722" height="2.55722" fill="#3774FA" stroke="white"
        stroke-width="0.00159926" />
    <rect x="10.2363" y="17.9125" width="2.55722" height="2.55722" fill="#3774FA" stroke="white"
        stroke-width="0.00159926" />
    <rect x="28.1464" y="20.4714" width="2.55722" height="2.55722" fill="#3774FA" stroke="white"
        stroke-width="0.00159926" />
    <rect x="30.7053" y="20.4714" width="2.55722" height="2.55722" fill="#3774FA" stroke="white"
        stroke-width="0.00159926" />
    <rect x="33.2641" y="20.4714" width="2.55722" height="2.55722" fill="#3774FA" stroke="white"
        stroke-width="0.00159926" />
    <rect x="35.8229" y="20.4714" width="2.55722" height="2.55722" fill="#3774FA" stroke="white"
        stroke-width="0.00159926" />
    <rect x="38.3817" y="20.4714" width="2.55722" height="2.55722" fill="#3774FA" stroke="white"
        stroke-width="0.00159926" />
    <rect x="2.55988" y="20.4714" width="2.55722" height="2.55722" fill="#3774FA" stroke="white"
        stroke-width="0.00159926" />
    <rect x="5.11872" y="20.4714" width="2.55722" height="2.55722" fill="#3774FA" stroke="white"
        stroke-width="0.00159926" />
    <rect x="7.67756" y="20.4714" width="2.55722" height="2.55722" fill="#3774FA" stroke="white"
        stroke-width="0.00159926" />
    <rect x="10.2363" y="20.4714" width="2.55722" height="2.55722" fill="#3774FA" stroke="white"
        stroke-width="0.00159926" />
    <rect x="12.7952" y="20.4714" width="2.55722" height="2.55722" fill="#3774FA" stroke="white"
        stroke-width="0.00159926" />
    <rect x="2.55988" y="15.3537" width="2.55722" height="2.55722" fill="#3774FA" stroke="white"
        stroke-width="0.00159926" />
    <rect x="5.11872" y="15.3537" width="2.55722" height="2.55722" fill="#3774FA" stroke="white"
        stroke-width="0.00159926" />
    <rect x="7.67756" y="15.3537" width="2.55722" height="2.55722" fill="#3774FA" stroke="white"
        stroke-width="0.00159926" />
    <rect x="10.2363" y="15.3537" width="2.55722" height="2.55722" fill="#3774FA" stroke="white"
        stroke-width="0.00159926" />
    <rect x="25.5867" y="12.7949" width="2.55722" height="2.55722" fill="#3774FA" stroke="white"
        stroke-width="0.00159926" />
    <rect x="15.3563" y="12.7949" width="2.55722" height="2.55722" fill="#3774FA" stroke="white"
        stroke-width="0.00159926" />
    <rect x="5.1261" y="0.00799632" width="2.54283" height="2.54283" stroke="white"
        stroke-width="0.0159926" />
    <rect x="5.1189" y="0.000799632" width="2.55722" height="2.55722" fill="#054CD8" stroke="white"
        stroke-width="0.00159926" />
    <rect x="7.68494" y="0.00799632" width="2.54283" height="2.54283" stroke="white"
        stroke-width="0.0159926" />
    <rect x="7.67774" y="0.000799632" width="2.55722" height="2.55722" fill="#054CD8" stroke="white"
        stroke-width="0.00159926" />
    <rect x="10.2438" y="0.00799632" width="2.54283" height="2.54283" stroke="white"
        stroke-width="0.0159926" />
    <rect x="10.2366" y="0.000799632" width="2.55722" height="2.55722" fill="#054CD8" stroke="white"
        stroke-width="0.00159926" />
    <rect x="30.7126" y="0.00799632" width="2.54283" height="2.54283" stroke="white"
        stroke-width="0.0159926" />
    <rect x="30.7055" y="0.000799632" width="2.55722" height="2.55722" fill="#054CD8" stroke="white"
        stroke-width="0.00159926" />
    <rect x="33.2715" y="0.00799632" width="2.54283" height="2.54283" stroke="white"
        stroke-width="0.0159926" />
    <rect x="33.2643" y="0.000799632" width="2.55722" height="2.55722" fill="#054CD8" stroke="white"
        stroke-width="0.00159926" />
    <rect x="35.8303" y="0.00799632" width="2.54283" height="2.54283" stroke="white"
        stroke-width="0.0159926" />
    <rect x="35.8231" y="0.000799632" width="2.55722" height="2.55722" fill="#054CD8" stroke="white"
        stroke-width="0.00159926" />
    <rect x="33.2717" y="30.7139" width="2.54283" height="2.54283" stroke="white"
        stroke-width="0.0159926" />
    <rect x="33.2645" y="30.7067" width="2.55722" height="2.55722" fill="#054CD8" stroke="white"
        stroke-width="0.00159926" />
    <rect x="35.8306" y="30.7139" width="2.54283" height="2.54283" stroke="white"
        stroke-width="0.0159926" />
    <rect x="35.8234" y="30.7067" width="2.55722" height="2.55722" fill="#054CD8" stroke="white"
        stroke-width="0.00159926" />
    <rect x="5.1261" y="30.7139" width="2.54283" height="2.54283" stroke="white"
        stroke-width="0.0159926" />
    <rect x="5.1189" y="30.7067" width="2.55722" height="2.55722" fill="#054CD8" stroke="white"
        stroke-width="0.00159926" />
    <rect x="7.68494" y="30.7139" width="2.54283" height="2.54283" stroke="white"
        stroke-width="0.0159926" />
    <rect x="7.67774" y="30.7067" width="2.55722" height="2.55722" fill="#054CD8" stroke="white"
        stroke-width="0.00159926" />
    <rect x="15.3624" y="0.00799632" width="2.54283" height="2.54283" stroke="white"
        stroke-width="0.0159926" />
    <rect x="15.3552" y="0.000799632" width="2.55722" height="2.55722" fill="#054CD8" stroke="white"
        stroke-width="0.00159926" />
    <rect x="17.9212" y="0.00799632" width="2.54283" height="2.54283" stroke="white"
        stroke-width="0.0159926" />
    <rect x="17.914" y="0.000799632" width="2.55722" height="2.55722" fill="#054CD8" stroke="white"
        stroke-width="0.00159926" />
    <rect x="20.48" y="0.00799632" width="2.54283" height="2.54283" stroke="white"
        stroke-width="0.0159926" />
    <rect x="20.4728" y="0.000799632" width="2.55722" height="2.55722" fill="#054CD8" stroke="white"
        stroke-width="0.00159926" />
    <rect x="23.0388" y="0.00799632" width="2.54283" height="2.54283" stroke="white"
        stroke-width="0.0159926" />
    <rect x="23.0316" y="0.000799632" width="2.55722" height="2.55722" fill="#054CD8" stroke="white"
        stroke-width="0.00159926" />
    <rect x="25.5977" y="0.00799632" width="2.54283" height="2.54283" stroke="white"
        stroke-width="0.0159926" />
    <rect x="25.5905" y="0.000799632" width="2.55722" height="2.55722" fill="#054CD8" stroke="white"
        stroke-width="0.00159926" />
    <rect x="10.2443" y="33.2726" width="2.54283" height="2.54283" stroke="white"
        stroke-width="0.0159926" />
    <rect x="10.2371" y="33.2654" width="2.55722" height="2.55722" fill="#054CD8" stroke="white"
        stroke-width="0.00159926" />
    <rect x="12.8031" y="33.2726" width="2.54283" height="2.54283" stroke="white"
        stroke-width="0.0159926" />
    <rect x="12.7959" y="33.2654" width="2.55722" height="2.55722" fill="#054CD8" stroke="white"
        stroke-width="0.00159926" />
    <rect x="15.3619" y="33.2726" width="2.54283" height="2.54283" stroke="white"
        stroke-width="0.0159926" />
    <rect x="15.3547" y="33.2654" width="2.55722" height="2.55722" fill="#054CD8" stroke="white"
        stroke-width="0.00159926" />
    <rect x="17.9207" y="33.2726" width="2.54283" height="2.54283" stroke="white"
        stroke-width="0.0159926" />
    <rect x="17.9135" y="33.2654" width="2.55722" height="2.55722" fill="#054CD8" stroke="white"
        stroke-width="0.00159926" />
    <rect x="20.4796" y="33.2726" width="2.54283" height="2.54283" stroke="white"
        stroke-width="0.0159926" />
    <rect x="20.4724" y="33.2654" width="2.55722" height="2.55722" fill="#054CD8" stroke="white"
        stroke-width="0.00159926" />
    <rect x="23.0384" y="33.2726" width="2.54283" height="2.54283" stroke="white"
        stroke-width="0.0159926" />
    <rect x="23.0312" y="33.2654" width="2.55722" height="2.55722" fill="#054CD8" stroke="white"
        stroke-width="0.00159926" />
    <rect x="25.5972" y="33.2726" width="2.54283" height="2.54283" stroke="white"
        stroke-width="0.0159926" />
    <rect x="25.59" y="33.2654" width="2.55722" height="2.55722" fill="#054CD8" stroke="white"
        stroke-width="0.00159926" />
    <rect x="28.156" y="33.2726" width="2.54283" height="2.54283" stroke="white"
        stroke-width="0.0159926" />
    <rect x="28.1488" y="33.2654" width="2.55722" height="2.55722" fill="#054CD8" stroke="white"
        stroke-width="0.00159926" />
    <rect x="30.7148" y="33.2726" width="2.54283" height="2.54283" stroke="white"
        stroke-width="0.0159926" />
    <rect x="30.7076" y="33.2654" width="2.55722" height="2.55722" fill="#054CD8" stroke="white"
        stroke-width="0.00159926" />
    <rect x="12.8049" y="2.56683" width="2.54283" height="2.54283" stroke="white"
        stroke-width="0.0159926" />
    <rect x="12.7977" y="2.55964" width="2.55722" height="2.55722" fill="#054CD8" stroke="white"
        stroke-width="0.00159926" />
    <rect x="28.1525" y="2.56683" width="2.54283" height="2.54283" stroke="white"
        stroke-width="0.0159926" />
    <rect x="28.1453" y="2.55964" width="2.55722" height="2.55722" fill="#054CD8" stroke="white"
        stroke-width="0.00159926" />
    <rect x="2.56659" y="2.56683" width="2.54283" height="2.54283" stroke="white"
        stroke-width="0.0159926" />
    <rect x="2.55939" y="2.55964" width="2.55722" height="2.55722" fill="#054CD8" stroke="white"
        stroke-width="0.00159926" />
    <rect x="38.3908" y="2.56683" width="2.54283" height="2.54283" stroke="white"
        stroke-width="0.0159926" />
    <rect x="38.3836" y="2.55964" width="2.55722" height="2.55722" fill="#054CD8" stroke="white"
        stroke-width="0.00159926" />
    <rect x="2.56659" y="12.8021" width="2.54283" height="2.54283" stroke="white"
        stroke-width="0.0159926" />
    <rect x="2.55939" y="12.7949" width="2.55722" height="2.55722" fill="#054CD8" stroke="white"
        stroke-width="0.00159926" />
    <rect x="38.3908" y="12.8021" width="2.54283" height="2.54283" stroke="white"
        stroke-width="0.0159926" />
    <rect x="38.3836" y="12.7949" width="2.55722" height="2.55722" fill="#054CD8" stroke="white"
        stroke-width="0.00159926" />
    <rect x="28.1536" y="12.8021" width="2.54283" height="2.54283" stroke="white"
        stroke-width="0.0159926" />
    <rect x="28.1464" y="12.7949" width="2.55722" height="2.55722" fill="#054CD8" stroke="white"
        stroke-width="0.00159926" />
    <rect x="28.1536" y="15.361" width="2.54283" height="2.54283" stroke="white"
        stroke-width="0.0159926" />
    <rect x="28.1464" y="15.3538" width="2.55722" height="2.55722" fill="#054CD8" stroke="white"
        stroke-width="0.00159926" />
    <rect x="38.3899" y="25.5962" width="2.54283" height="2.54283" stroke="white"
        stroke-width="0.0159926" />
    <rect x="38.3827" y="25.589" width="2.55722" height="2.55722" fill="#054CD8" stroke="white"
        stroke-width="0.00159926" />
    <rect x="38.3899" y="28.155" width="2.54283" height="2.54283" stroke="white"
        stroke-width="0.0159926" />
    <rect x="38.3827" y="28.1478" width="2.55722" height="2.55722" fill="#054CD8" stroke="white"
        stroke-width="0.00159926" />
    <rect x="2.56708" y="25.5962" width="2.54283" height="2.54283" stroke="white"
        stroke-width="0.0159926" />
    <rect x="2.55988" y="25.589" width="2.55722" height="2.55722" fill="#054CD8" stroke="white"
        stroke-width="0.00159926" />
    <rect x="2.56708" y="28.155" width="2.54283" height="2.54283" stroke="white"
        stroke-width="0.0159926" />
    <rect x="2.55988" y="28.1478" width="2.55722" height="2.55722" fill="#054CD8" stroke="white"
        stroke-width="0.00159926" />
    <rect x="12.8033" y="12.8021" width="2.54283" height="2.54283" stroke="white"
        stroke-width="0.0159926" />
    <rect x="12.7961" y="12.7949" width="2.55722" height="2.55722" fill="#054CD8" stroke="white"
        stroke-width="0.00159926" />
    <rect x="12.8033" y="15.361" width="2.54283" height="2.54283" stroke="white"
        stroke-width="0.0159926" />
    <rect x="12.7961" y="15.3538" width="2.55722" height="2.55722" fill="#054CD8" stroke="white"
        stroke-width="0.00159926" />
    <rect x="0.00799632" y="5.12561" width="2.54283" height="2.54283" stroke="white"
        stroke-width="0.0159926" />
    <rect x="0.000799632" y="5.11841" width="2.55722" height="2.55722" fill="#054CD8" stroke="white"
        stroke-width="0.00159926" />
    <rect x="0.00799632" y="7.68445" width="2.54283" height="2.54283" stroke="white"
        stroke-width="0.0159926" />
    <rect x="0.000799632" y="7.67725" width="2.55722" height="2.55722" fill="#054CD8" stroke="white"
        stroke-width="0.00159926" />
    <rect x="0.00799632" y="10.2433" width="2.54283" height="2.54283" stroke="white"
        stroke-width="0.0159926" />
    <rect x="0.000799632" y="10.2361" width="2.55722" height="2.55722" fill="#054CD8" stroke="white"
        stroke-width="0.00159926" />
    <rect x="40.9494" y="5.12567" width="2.54283" height="2.54283" stroke="white"
        stroke-width="0.0159926" />
    <rect x="40.9422" y="5.11848" width="2.55722" height="2.55722" fill="#054CD8" stroke="white"
        stroke-width="0.00159926" />
    <rect x="40.9494" y="7.68445" width="2.54283" height="2.54283" stroke="white"
        stroke-width="0.0159926" />
    <rect x="40.9422" y="7.67725" width="2.55722" height="2.55722" fill="#054CD8" stroke="white"
        stroke-width="0.00159926" />
    <rect x="40.9494" y="10.2432" width="2.54283" height="2.54283" stroke="white"
        stroke-width="0.0159926" />
    <rect x="40.9422" y="10.236" width="2.55722" height="2.55722" fill="#054CD8" stroke="white"
        stroke-width="0.00159926" />
    <rect x="40.9494" y="15.3609" width="2.54283" height="2.54283" stroke="white"
        stroke-width="0.0159926" />
    <rect x="40.9422" y="15.3537" width="2.55722" height="2.55722" fill="#054CD8" stroke="white"
        stroke-width="0.00159926" />
    <rect x="40.9494" y="17.9197" width="2.54283" height="2.54283" stroke="white"
        stroke-width="0.0159926" />
    <rect x="40.9422" y="17.9125" width="2.55722" height="2.55722" fill="#054CD8" stroke="white"
        stroke-width="0.00159926" />
    <rect x="40.9494" y="20.4786" width="2.54283" height="2.54283" stroke="white"
        stroke-width="0.0159926" />
    <rect x="40.9422" y="20.4714" width="2.55722" height="2.55722" fill="#054CD8" stroke="white"
        stroke-width="0.00159926" />
    <rect x="40.9494" y="23.0374" width="2.54283" height="2.54283" stroke="white"
        stroke-width="0.0159926" />
    <rect x="40.9422" y="23.0302" width="2.55722" height="2.55722" fill="#054CD8" stroke="white"
        stroke-width="0.00159926" />
    <rect x="0.00799632" y="15.3609" width="2.54283" height="2.54283" stroke="white"
        stroke-width="0.0159926" />
    <rect x="0.000799632" y="15.3537" width="2.55722" height="2.55722" fill="#054CD8" stroke="white"
        stroke-width="0.00159926" />
    <rect x="0.00799632" y="17.9197" width="2.54283" height="2.54283" stroke="white"
        stroke-width="0.0159926" />
    <rect x="0.000799632" y="17.9125" width="2.55722" height="2.55722" fill="#054CD8" stroke="white"
        stroke-width="0.00159926" />
    <rect x="0.00799632" y="20.4786" width="2.54283" height="2.54283" stroke="white"
        stroke-width="0.0159926" />
    <rect x="0.000799632" y="20.4714" width="2.55722" height="2.55722" fill="#054CD8" stroke="white"
        stroke-width="0.00159926" />
    <rect x="0.00799632" y="23.0374" width="2.54283" height="2.54283" stroke="white"
        stroke-width="0.0159926" />
    <rect x="0.000799632" y="23.0302" width="2.55722" height="2.55722" fill="#054CD8" stroke="white"
        stroke-width="0.00159926" />
    <rect x="20.4805" y="17.9197" width="2.54283" height="2.54283" stroke="white"
        stroke-width="0.0159926" />
    <rect x="20.4733" y="17.9125" width="2.55722" height="2.55722" fill="#054CD8" stroke="white"
        stroke-width="0.00159926" />
    <rect x="17.9214" y="15.3609" width="2.54283" height="2.54283" stroke="white"
        stroke-width="0.0159926" />
    <rect x="17.9143" y="15.3537" width="2.55722" height="2.55722" fill="#054CD8" stroke="white"
        stroke-width="0.00159926" />
    <rect x="20.4803" y="15.3609" width="2.54283" height="2.54283" stroke="white"
        stroke-width="0.0159926" />
    <rect x="20.4731" y="15.3537" width="2.55722" height="2.55722" fill="#054CD8" stroke="white"
        stroke-width="0.00159926" />
    <rect x="23.0391" y="15.3609" width="2.54283" height="2.54283" stroke="white"
        stroke-width="0.0159926" />
    <rect x="23.0319" y="15.3537" width="2.55722" height="2.55722" fill="#054CD8" stroke="white"
        stroke-width="0.00159926" />
</svg>
    