<svg width="16" height="16" viewBox="0 0 16 16" fill="none" xmlns="http://www.w3.org/2000/svg">
<path d="M6.66666 3.36468C6.70881 3.10081 6.77172 2.86934 6.85844 2.66665C7.31251 1.60534 8.33332 1.33331 10.6138 1.33331C14 1.33331 14.6667 2.66665 14.6667 5.39605C14.6667 7.33331 14.518 8.80032 13.3333 9.17374C13.1333 9.2368 12.9037 9.28776 12.6403 9.33331" stroke="#606060" stroke-width="1.5" stroke-linecap="round" stroke-linejoin="round"/>
<path d="M6.00001 14.6666C9.33334 14.6666 10.6667 13.6666 10.6667 9.99998C10.6667 6.33331 9.33334 5.33331 6.00001 5.33331C2.66668 5.33331 1.33334 6.11109 1.33334 9.99998C1.33334 13.8889 2.66668 14.6666 6.00001 14.6666Z" stroke="#606060" stroke-width="1.5" stroke-linecap="round" stroke-linejoin="round"/>
<path d="M4.66667 6C4.66667 6 5.06971 7.59695 4.33333 8.33333C3.59695 9.06971 2 8.66667 2 8.66667" stroke="#606060" stroke-width="1.5" stroke-linecap="round" stroke-linejoin="round"/>
</svg>
