<svg width="36" height="36" viewBox="0 0 36 36" fill="none" xmlns="http://www.w3.org/2000/svg">
<path fill-rule="evenodd" clip-rule="evenodd" d="M8.47392 7.15976L29.3014 27.9872C29.5144 28.2003 29.5144 28.5456 29.3014 28.7586L28.53 29.53C28.317 29.743 27.9716 29.743 27.7586 29.53L6.93115 8.70254C6.71813 8.48952 6.71813 8.14416 6.93115 7.93115L7.70253 7.15976C7.91555 6.94675 8.26091 6.94675 8.47392 7.15976ZM9.27002 13.3533L10.6961 14.7796C9.83292 15.7291 8.99516 16.8711 8.18182 18.2135C11.1934 23.0727 14.4523 25.3186 17.9834 25.3186C18.9237 25.3186 19.8455 25.1593 20.7492 24.834L22.3895 26.474C20.9883 27.1583 19.5192 27.5004 17.9822 27.5004C13.3628 27.5004 9.36872 24.4102 6 18.2297C7.02058 16.3045 8.11058 14.6791 9.27002 13.3533ZM17.9822 8.95527C22.6925 8.95527 26.6984 12.0468 30 18.23C28.9549 20.134 27.8516 21.7447 26.69 23.0622L25.2636 21.6355C26.1335 20.6871 26.9848 19.5491 27.8182 18.2138C24.8642 13.373 21.6011 11.1371 17.9834 11.1371C17.0405 11.1371 16.1224 11.289 15.2283 11.5994L13.5804 9.95214C14.9707 9.28756 16.438 8.95527 17.9822 8.95527ZM13.6622 17.7477L18.4803 22.5658C18.3225 22.5831 18.1621 22.5919 17.9997 22.5919C15.5897 22.5919 13.6361 20.6383 13.6361 18.2283C13.6361 18.0659 13.645 17.9055 13.6622 17.7477ZM18.0001 13.8653C20.4101 13.8653 22.3638 15.8189 22.3638 18.2289C22.3638 18.3913 22.3549 18.5517 22.3376 18.7095L17.5195 13.8914C17.6774 13.8742 17.8377 13.8653 18.0001 13.8653Z" fill="black"/>
</svg>
