<svg width="36" height="36" viewBox="0 0 36 36" fill="none" xmlns="http://www.w3.org/2000/svg">
<path fill-rule="evenodd" clip-rule="evenodd" d="M18.3972 25.1528C22.0995 25.1528 25.5274 22.7978 28.7052 17.7058C25.6091 12.632 22.189 10.2886 18.3972 10.2886C14.6066 10.2886 11.1988 12.631 8.12394 17.7058C11.2805 22.7989 14.6962 25.1528 18.3972 25.1528ZM18.3961 8C22.9939 8 26.9514 10.8105 30.2686 16.4314L30.4713 16.7801L30.6844 17.1599C30.8774 17.5084 30.8752 17.9324 30.6783 18.2788L30.4498 18.6755C27.0118 24.5171 22.9938 27.4379 18.3961 27.4379C13.8871 27.4379 9.94655 24.6288 6.57447 19.0106L6.41175 18.7366C6.35598 18.6417 6.2885 18.5245 6.20931 18.385L6.14772 18.2762C5.9529 17.9311 5.95065 17.5097 6.14177 17.1626L6.33453 16.8159C6.37225 16.7489 6.40657 16.6886 6.43748 16.635C9.75685 10.8783 13.743 8 18.3961 8ZM18.4148 13.1467C15.8888 13.1467 13.8412 15.1944 13.8412 17.7203C13.8412 20.2463 15.8888 22.2939 18.4148 22.2939C20.9407 22.2939 22.9884 20.2463 22.9884 17.7203C22.9884 15.1944 20.9407 13.1467 18.4148 13.1467ZM18.4118 15.433C19.6748 15.433 20.6986 16.4569 20.6986 17.7199C20.6986 18.9828 19.6748 20.0067 18.4118 20.0067C17.1488 20.0067 16.125 18.9828 16.125 17.7199C16.125 16.4569 17.1488 15.433 18.4118 15.433Z" fill="black"/>
</svg>
